{
  "asset": {
    "version": "2.0",
    "generator": "THREE.GLTFExporter r180"
  },
  "scenes": [
    {
      "name": "AuxScene",
      "nodes": [
        0
      ]
    }
  ],
  "scene": 0,
  "nodes": [
    {
      "matrix": [
        1,
        0,
        0,
        0,
        0,
        1,
        0,
        0,
        0,
        0,
        1,
        0,
        -0.06145051121711731,
        -0.19267936050891876,
        0.003036134410649538,
        1
      ],
      "mesh": 0
    }
  ],
  "bufferViews": [
    {
      "buffer": 0,
      "byteOffset": 0,
      "byteLength": 2304,
      "target": 34962,
      "byteStride": 12
    },
    {
      "buffer": 0,
      "byteOffset": 2304,
      "byteLength": 2304,
      "target": 34962,
      "byteStride": 12
    }
  ],
  "buffers": [
    {
      "byteLength": 4608,
      "uri": "data:application/octet-stream;base64,"
    }
  ],
  "accessors": [
    {
      "bufferView": 0,
      "componentType": 5126,
      "count": 192,
      "max": [
        0.1472204476594925,
        0.25423017144203186,
        0
      ],
      "min": [
        -0.024319425225257874,
        0.13112854957580566,
        -0.006072268821299076
      ],
      "type": "VEC3"
    },
    {
      "bufferView": 1,
      "componentType": 5126,
      "count": 192,
      "max": [
        0.999997615814209,
        0.9999574422836304,
        1
      ],
      "min": [
        -1,
        -1,
        -1
      ],
      "type": "VEC3"
    }
  ],
  "materials": [
    {
      "pbrMetallicRoughness": {
        "baseColorFactor": [
          0.24620132669705552,
          0.24620132669705552,
          0.24620132669705552,
          1
        ],
        "metallicFactor": 0,
        "roughnessFactor": 1
      }
    }
  ],
  "meshes": [
    {
      "primitives": [
        {
          "mode": 4,
          "attributes": {
            "POSITION": 0,
            "NORMAL": 1
          },
          "material": 0
        }
      ]
    }
  ]
}