{
  "asset": {
    "version": "2.0",
    "generator": "THREE.GLTFExporter r180"
  },
  "scenes": [
    {
      "name": "AuxScene",
      "nodes": [
        0
      ]
    }
  ],
  "scene": 0,
  "nodes": [
    {
      "matrix": [
        1,
        0,
        0,
        0,
        0,
        1,
        0,
        0,
        0,
        0,
        1,
        0,
        0.2980840429663658,
        -0.006736434996128082,
        -0.0030001578852534294,
        1
      ],
      "mesh": 0
    }
  ],
  "bufferViews": [
    {
      "buffer": 0,
      "byteOffset": 0,
      "byteLength": 3888,
      "target": 34962,
      "byteStride": 12
    },
    {
      "buffer": 0,
      "byteOffset": 3888,
      "byteLength": 3888,
      "target": 34962,
      "byteStride": 12
    }
  ],
  "buffers": [
    {
      "byteLength": 7776,
      "uri": "data:application/octet-stream;base64,"
    }
  ],
  "accessors": [
    {
      "bufferView": 0,
      "componentType": 5126,
      "count": 324,
      "max": [
        -0.20506365597248077,
        0.08513498306274414,
        0.006000315770506859
      ],
      "min": [
        -0.39110442996025085,
        -0.07166211307048798,
        0
      ],
      "type": "VEC3"
    },
    {
      "bufferView": 1,
      "componentType": 5126,
      "count": 324,
      "max": [
        0.999997615814209,
        0.9999338984489441,
        1
      ],
      "min": [
        -1,
        -0.9999978542327881,
        -1
      ],
      "type": "VEC3"
    }
  ],
  "materials": [
    {
      "pbrMetallicRoughness": {
        "baseColorFactor": [
          0.24620132669705552,
          0.24620132669705552,
          0.24620132669705552,
          1
        ],
        "metallicFactor": 0,
        "roughnessFactor": 1
      }
    }
  ],
  "meshes": [
    {
      "primitives": [
        {
          "mode": 4,
          "attributes": {
            "POSITION": 0,
            "NORMAL": 1
          },
          "material": 0
        }
      ]
    }
  ]
}